<?xml version="1.0" standalone="no"?><!DOCTYPE svg PUBLIC "-//W3C//DTD SVG 1.1//EN" "http://www.w3.org/Graphics/SVG/1.1/DTD/svg11.dtd"><svg width="100%" height="100%" viewBox="0 0 48 48" version="1.1" xmlns="http://www.w3.org/2000/svg" xmlns:xlink="http://www.w3.org/1999/xlink" xml:space="preserve" style="fill-rule:evenodd;clip-rule:evenodd;stroke-linejoin:round;stroke-miterlimit:1.41421;"><path d="M7.683,46.601l10.545,-10.545c2.974,1.836 6.441,2.945 10.191,2.945c10.771,0 19.5,-8.73 19.5,-19.5c0,-10.77 -8.729,-19.5 -19.5,-19.5c-10.77,0 -19.5,8.73 -19.5,19.5c0,3.75 1.109,7.218 2.943,10.188l-10.545,10.548c-1.758,1.758 -1.758,4.604 0,6.363c1.758,1.758 4.608,1.758 6.366,0.001ZM14.919,19.501c0,-7.455 6.045,-13.5 13.5,-13.5c7.455,0 13.5,6.045 13.5,13.5c0,7.455 -6.045,13.5 -13.5,13.5c-7.455,0 -13.5,-6.045 -13.5,-13.5Z" style="fill:#ababab;fill-rule:nonzero;"/></svg>